# xmcd
#
# Track frame offsets: 
#        150
#        17690
#        32006
#        46258
#        70541
#        86414
#        102127
#        117353
#        132661
#        147310
#        167676
#        207241
#
# Disc length: 2934 seconds
#
# Revision: 0
# Processed by: cddbd v1.5.1PL0 Copyright (c) Steve Scherf et al.
# Submitted via: ExactAudioCopy v0.95a5
#
DISCID=9e0b740c
DTITLE=Tyrone Davis - Come To Daddy
DYEAR=2003
DGENRE=Soul
TTITLE0=Dogg
TTITLE1=Bangin The Headboard
TTITLE2=Come To Daddy
TTITLE3=Tease
TTITLE4=Rock Me
TTITLE5=Whip Appeal
TTITLE6=Slide On Over
TTITLE7=Back That Thang Up
TTITLE8=Wrong Place
TTITLE9=You Are
TTITLE10=I Wake Up Crying
TTITLE11=The Ties That Bind
EXTD=
EXTT0=
EXTT1=
EXTT2=
EXTT3=
EXTT4=
EXTT5=
EXTT6=
EXTT7=
EXTT8=
EXTT9=
EXTT10=
EXTT11=
PLAYORDER=
